# xmcd CD database file
# Copyright (C) 1997 Ti Kan
#
# Track frame offsets:
#  180
#  11833
#  26754
#  37918
#  49069
#  60484
#  72283
#  85517
#  96798
#  107773
#  120412
#  132053
#  142655
#  154624
#  163835
#  174298
#  185030
#  195429
#  207294
#  218409
#  231845
#  243293
#  253624
#  267204
#  277541
#  288637
#  299918
#  310789
#  322413
#
# Disc length: 4444 seconds
#
# Revision: 1
# Processed by: cddbd v1.4b41PL1 Copyright (c) Steve Scherf et al.
# Submitted via: CDWizzard Release:4.31
#
DISCID=98115a1d
DTITLE=Various Artist - Jukebox Hits 1963
DYEAR=1900
DGENRE=
TTITLE0=Rhythm Of The Rain
TTITLE1=Al Di La
TTITLE2=You're The Reason I'm Living
TTITLE3=Blame It On The Bossa Nova
TTITLE4=The End Of The World
TTITLE5=Greenback Dollar
TTITLE6=Let's Turkey Trot
TTITLE7=All I Have To Do Is Dream
TTITLE8=In Dreams
TTITLE9=Baby, You're Driving Me Crazy
TTITLE10=Mr. Bass Man
TTITLE11=Yakety Sax
TTITLE12=Pipeline
TTITLE13=All Over The World
TTITLE14=Sandy
TTITLE15=Out Of My Mind
TTITLE16=Over The Mountian Across The Sea
TTITLE17=Baby Work Out
TTITLE18=Young Lovers
TTITLE19=Foolish Little Girl
TTITLE20=On Broadway
TTITLE21=Mecca
TTITLE22=Surfin' USA
TTITLE23=Losing You
TTITLE24=Charms
TTITLE25=Two Kinds Of Tear Drops
TTITLE26=Sweet Dreams
TTITLE27=Unknown
TTITLE28=Unknown
EXTD=The Playlist is screwed they missed a few songs
EXTT0=
EXTT1=
EXTT2=
EXTT3=
EXTT4=
EXTT5=
EXTT6=
EXTT7=
EXTT8=
EXTT9=
EXTT10=
EXTT11=
EXTT12=
EXTT13=
EXTT14=
EXTT15=
EXTT16=
EXTT17=
EXTT18=
EXTT19=
EXTT20=
EXTT21=
EXTT22=
EXTT23=
EXTT24=
EXTT25=
EXTT26=
EXTT27=
EXTT28=
PLAYORDER=
